<?xml version="1.0" encoding="utf-8"?>
<svg version="1.1" xmlns:xlink="http://www.w3.org/1999/xlink" width="47px" height="47px" xmlns="http://www.w3.org/2000/svg">
  <g transform="matrix(1 0 0 1 -74 -72 )">
    <path d="M 97.5 73  C 110.1 73  120 82.9  120 95.5  C 120 108.1  110.1 118  97.5 118  C 84.9 118  75 108.1  75 95.5  C 75 82.9  84.9 73  97.5 73  Z " fill-rule="nonzero" fill="#0079fe" stroke="none" />
    <path d="M 97.5 73  C 110.1 73  120 82.9  120 95.5  C 120 108.1  110.1 118  97.5 118  C 84.9 118  75 108.1  75 95.5  C 75 82.9  84.9 73  97.5 73  Z " stroke-width="2" stroke="#0079fe" fill="none" />
  </g>
</svg>