<?xml version="1.0" encoding="utf-8"?>
<svg version="1.1" xmlns:xlink="http://www.w3.org/1999/xlink" width="47px" height="47px" xmlns="http://www.w3.org/2000/svg">
  <g transform="matrix(1 0 0 1 -1007 -72 )">
    <path d="M 1030.5 73  C 1043.1 73  1053 82.9  1053 95.5  C 1053 108.1  1043.1 118  1030.5 118  C 1017.9 118  1008 108.1  1008 95.5  C 1008 82.9  1017.9 73  1030.5 73  Z " fill-rule="nonzero" fill="#ffffff" stroke="none" />
    <path d="M 1030.5 73  C 1043.1 73  1053 82.9  1053 95.5  C 1053 108.1  1043.1 118  1030.5 118  C 1017.9 118  1008 108.1  1008 95.5  C 1008 82.9  1017.9 73  1030.5 73  Z " stroke-width="2" stroke="#e4e4e4" fill="none" />
  </g>
</svg>