<?xml version="1.0" encoding="utf-8"?>
<svg version="1.1" xmlns:xlink="http://www.w3.org/1999/xlink" width="757px" height="161px" xmlns="http://www.w3.org/2000/svg">
  <g transform="matrix(1 0 0 1 -66 -1039 )">
    <path d="M 755.425531914894 159.555555555556  L 1.37872340425532 159.555555555556  C 1.37872340425532 159.555555555556  0.229787234042556 79.8222222222223  0.229787234042556 80.1777777777778  C 11.397595240914 79.8417995196933  41.7720324266019 78.2222222222222  65.1063829787234 78.2222222222222  C 105.127659574468 78.2222222222222  101.872340425532 103.111111111111  134.808510638298 103.111111111111  C 167.744680851064 103.111111111111  155.712575112707 57.0716033840667  206.042553191489 57.4814814814813  C 242.425531914894 57.7777777777778  247.724591904599 73.3170411633729  269.617021276596 73.4814814814814  C 309.063829787234 73.7777777777778  305.617021276596 0.296296296296027  344.68085106383 0.592592592592458  C 383.744680851064 0.888888888888889  363.477513136008 76.9810669342278  408.255319148936 81.7777777777778  C 433.148936170213 84.4444444444444  443.297872340426 81.3333333333333  476.425531914894 83.5555555555556  C 509.553191489362 85.7777777777778  508.978723404255 130.666666666667  547.659574468085 130.962962962963  C 586.340425531915 131.259259259259  578.041349091286 114.836336552325  616.595744680851 114.962962962963  C 658.256430070534 115.099791539185  660.255319148936 132.148148148148  690.893617021277 132.740740740741  C 716.580440913224 133.237564083507  737.157446808511 102.222222222222  753.702127659574 103.111111111111  C 754.16170212766 103.644444444444  755.425531914894 159.555555555556  755.425531914894 159.555555555556  Z " fill-rule="nonzero" fill="#49a9ee" stroke="none" transform="matrix(1 0 0 1 66 1039 )" />
  </g>
</svg>