<?xml version="1.0" encoding="utf-8"?>
<svg version="1.1" xmlns:xlink="http://www.w3.org/1999/xlink" width="6px" height="7px" xmlns="http://www.w3.org/2000/svg">
  <g transform="matrix(1 0 0 1 -397 -1038 )">
    <path d="M 400 1039  C 401.12 1039  402 1040.1  402 1041.5  C 402 1042.9  401.12 1044  400 1044  C 398.88 1044  398 1042.9  398 1041.5  C 398 1040.1  398.88 1039  400 1039  Z " fill-rule="nonzero" fill="#ffffff" stroke="none" />
    <path d="M 400 1039  C 401.12 1039  402 1040.1  402 1041.5  C 402 1042.9  401.12 1044  400 1044  C 398.88 1044  398 1042.9  398 1041.5  C 398 1040.1  398.88 1039  400 1039  Z " stroke-width="2" stroke="#2db7f5" fill="none" />
  </g>
</svg>