<?xml version="1.0" encoding="utf-8"?>
<svg version="1.1" xmlns:xlink="http://www.w3.org/1999/xlink" width="312px" height="63px" xmlns="http://www.w3.org/2000/svg">
  <g transform="matrix(1 0 0 1 -685 -381 )">
    <path d="M 686 385  A 3 3 0 0 1 689 382 L 993 382  A 3 3 0 0 1 996 385 L 996 440  A 3 3 0 0 1 993 443 L 689 443  A 3 3 0 0 1 686 440 L 686 385  Z " fill-rule="nonzero" fill="#ff3399" stroke="none" fill-opacity="0.0980392156862745" />
    <path d="M 685.5 385  A 3.5 3.5 0 0 1 689 381.5 L 993 381.5  A 3.5 3.5 0 0 1 996.5 385 L 996.5 440  A 3.5 3.5 0 0 1 993 443.5 L 689 443.5  A 3.5 3.5 0 0 1 685.5 440 L 685.5 385  Z " stroke-width="1" stroke-dasharray="9,4" stroke="#ff3399" fill="none" stroke-dashoffset="0.5" />
  </g>
</svg>