<?xml version="1.0" encoding="utf-8"?>
<svg version="1.1" xmlns:xlink="http://www.w3.org/1999/xlink" width="749px" height="10px" preserveAspectRatio="xMinYMid meet" viewBox="96 276  749 8" xmlns="http://www.w3.org/2000/svg">
  <path d="M 101.5 303  L 101.5 285  A 5 5 0 0 1 106 280.5 L 597 280.5  A 3 3 0 0 1 600 277.5 A 3 3 0 0 1 603 280.5 L 835 280.5  A 5 5 0 0 1 840.5 285 L 840.5 429  A 3 3 0 0 1 843.5 432 A 3 3 0 0 1 840.5 435 L 840.5 1501  A 5 5 0 0 0 845.5 1506.5 L 856 1506.5  " stroke-width="1" stroke="#ff0000" fill="none" stroke-opacity="0.298039215686275" />
  <path d="M 855 1501  L 855 1512  L 856 1512  L 856 1501  L 855 1501  Z " fill-rule="nonzero" fill="#ff0000" stroke="none" fill-opacity="0.298039215686275" />
</svg>