<?xml version="1.0" encoding="utf-8"?>
<svg version="1.1" xmlns:xlink="http://www.w3.org/1999/xlink" width="40px" height="50px" xmlns="http://www.w3.org/2000/svg">
  <defs>
    <filter x="312px" y="57px" width="40px" height="50px" filterUnits="userSpaceOnUse" id="filter86">
      <feOffset dx="1" dy="1" in="SourceAlpha" result="shadowOffsetInner" />
      <feGaussianBlur stdDeviation="2.5" in="shadowOffsetInner" result="shadowGaussian" />
      <feComposite in2="shadowGaussian" operator="atop" in="SourceAlpha" result="shadowComposite" />
      <feColorMatrix type="matrix" values="0 0 0 0 0  0 0 0 0 0  0 0 0 0 0  0 0 0 0.698039215686274 0  " in="shadowComposite" />
    </filter>
    <g id="widget87">
      <path d="M 331 100.036928468354  C 325.2 90.4073405959099  316.5 84.6295878724437  316.5 75  C 316.5 69.9857142857143  319.4 61.5  331 61.5  C 342.6 61.5  345.5 69.9857142857143  345.5 75  C 345.5 84.6295878724437  336.8 90.4073405959099  331 100.036928468354  Z " fill-rule="nonzero" fill="#009dd9" stroke="none" />
      <path d="M 331 101  C 325 91  316 85  316 75  C 316 69.8  319 61  331 61  C 343 61  346 69.8  346 75  C 346 85  337 91  331 101  Z M 331 99.0738569367072  C 336.6 89.8146811918198  345 84.2591757448874  345 75  C 345 70.1714285714286  342.2 62  331 62  C 319.8 62  317 70.1714285714286  317 75  C 317 84.2591757448874  325.4 89.8146811918198  331 99.0738569367072  Z " fill-rule="nonzero" fill="#ffffff" stroke="none" />
    </g>
  </defs>
  <g transform="matrix(1 0 0 1 -312 -57 )">
    <use xlink:href="#widget87" filter="url(#filter86)" />
    <use xlink:href="#widget87" />
  </g>
</svg>