<?xml version="1.0" encoding="utf-8"?>
<svg version="1.1" xmlns:xlink="http://www.w3.org/1999/xlink" width="460px" height="10px" preserveAspectRatio="xMinYMid meet" viewBox="625 226  460 8" xmlns="http://www.w3.org/2000/svg">
  <path d="M 1080.5 250  L 1080.5 235  A 5 5 0 0 0 1075 230.5 L 693 230.5  A 3 3 0 0 0 690 227.5 A 3 3 0 0 0 687 230.5 L 635 230.5  A 5 5 0 0 0 630.5 235 L 630.5 437  A 3 3 0 0 1 633.5 440 A 3 3 0 0 1 630.5 443 L 630.5 886  A 5 5 0 0 0 635.5 891.5 L 641 891.5  " stroke-width="1" stroke="#ff0000" fill="none" stroke-opacity="0.298039215686275" />
  <path d="M 640 886  L 640 897  L 641 897  L 641 886  L 640 886  Z " fill-rule="nonzero" fill="#ff0000" stroke="none" fill-opacity="0.298039215686275" />
</svg>