<?xml version="1.0" encoding="utf-8"?>
<svg version="1.1" xmlns:xlink="http://www.w3.org/1999/xlink" width="47px" height="47px" xmlns="http://www.w3.org/2000/svg">
  <g transform="matrix(1 0 0 1 -984 -72 )">
    <path d="M 1007.5 73  C 1020.1 73  1030 82.9  1030 95.5  C 1030 108.1  1020.1 118  1007.5 118  C 994.9 118  985 108.1  985 95.5  C 985 82.9  994.9 73  1007.5 73  Z " fill-rule="nonzero" fill="#ffffff" stroke="none" />
    <path d="M 1007.5 73  C 1020.1 73  1030 82.9  1030 95.5  C 1030 108.1  1020.1 118  1007.5 118  C 994.9 118  985 108.1  985 95.5  C 985 82.9  994.9 73  1007.5 73  Z " stroke-width="2" stroke="#e4e4e4" fill="none" />
  </g>
</svg>