<?xml version="1.0" encoding="utf-8"?>
<svg version="1.1" xmlns:xlink="http://www.w3.org/1999/xlink" width="22px" height="22px" xmlns="http://www.w3.org/2000/svg">
  <g transform="matrix(1 0 0 1 0 -10 )">
    <path d="M 11 12  C 16.04 12  20 15.96  20 21  C 20 26.04  16.04 30  11 30  C 5.96 30  2 26.04  2 21  C 2 15.96  5.96 12  11 12  Z " fill-rule="nonzero" fill="#ffffff" stroke="none" />
    <path d="M 11 11.5  C 16.32 11.5  20.5 15.68  20.5 21  C 20.5 26.32  16.32 30.5  11 30.5  C 5.68 30.5  1.5 26.32  1.5 21  C 1.5 15.68  5.68 11.5  11 11.5  Z " stroke-width="3" stroke="#bdc3c7" fill="none" />
  </g>
</svg>