<?xml version="1.0" encoding="utf-8"?>
<svg version="1.1" xmlns:xlink="http://www.w3.org/1999/xlink" width="23px" height="10px" preserveAspectRatio="xMinYMid meet" viewBox="765 283  23 8" xmlns="http://www.w3.org/2000/svg">
  <path d="M 1000 311.5  L 833 311.5  A 3 3 0 0 0 830 308.5 A 3 3 0 0 0 827 311.5 L 813 311.5  A 3 3 0 0 0 810 308.5 A 3 3 0 0 0 807 311.5 L 803 311.5  A 3 3 0 0 0 800 308.5 A 3 3 0 0 0 797 311.5 L 775 311.5  A 5 5 0 0 1 770.5 306.5 L 770.5 292  A 5 5 0 0 1 775.5 287.5 L 783 287.5  " stroke-width="1" stroke="#ff0000" fill="none" stroke-opacity="0.298039215686275" />
  <path d="M 782 282  L 782 293  L 783 293  L 783 282  L 782 282  Z " fill-rule="nonzero" fill="#ff0000" stroke="none" fill-opacity="0.298039215686275" />
</svg>