<?xml version="1.0" encoding="utf-8"?>
<svg version="1.1" xmlns:xlink="http://www.w3.org/1999/xlink" width="18px" height="18px" preserveAspectRatio="xMinYMid meet" viewBox="529 319  18 16" xmlns="http://www.w3.org/2000/svg">
  <path d="M 1068 393.5  L 833 393.5  A 3 3 0 0 0 830 390.5 A 3 3 0 0 0 827 393.5 L 813 393.5  A 3 3 0 0 0 810 390.5 A 3 3 0 0 0 807 393.5 L 803 393.5  A 3 3 0 0 0 800 390.5 A 3 3 0 0 0 797 393.5 L 713 393.5  A 3 3 0 0 0 710 390.5 A 3 3 0 0 0 707 393.5 L 543 393.5  A 5 5 0 0 1 538.5 388.5 L 538.5 326  " stroke-width="1" stroke="#ff0000" fill="none" stroke-opacity="0.298039215686275" />
  <path d="M 533 327  L 544 327  L 544 326  L 533 326  L 533 327  Z " fill-rule="nonzero" fill="#ff0000" stroke="none" fill-opacity="0.298039215686275" />
</svg>