<?xml version="1.0" encoding="utf-8"?>
<svg version="1.1" xmlns:xlink="http://www.w3.org/1999/xlink" width="18px" height="18px" preserveAspectRatio="xMinYMid meet" viewBox="774 320  18 16" xmlns="http://www.w3.org/2000/svg">
  <path d="M 1000 311.5  L 813 311.5  A 3 3 0 0 0 810 308.5 A 3 3 0 0 0 807 311.5 L 800.5 311.5  A 0.5 0.5 0 0 1 800.5 311 A 0.5 0.5 0 0 0 800 310.5 L 775 310.5  A 5 5 0 0 0 770.5 315.5 L 770.5 324  A 5 5 0 0 0 775.5 329.5 L 783 329.5  " stroke-width="1" stroke="#ff0000" fill="none" stroke-opacity="0.298039215686275" />
  <path d="M 782 324  L 782 335  L 783 335  L 783 324  L 782 324  Z " fill-rule="nonzero" fill="#ff0000" stroke="none" fill-opacity="0.298039215686275" />
</svg>