<svg t="1598514321536" class="icon" viewBox="0 0 1024 1024" version="1.1" xmlns="http://www.w3.org/2000/svg" p-id="2565" width="200" height="200"><path d="M832 1015.296H192v-832c0-52.928 43.072-96 96-96h448c52.928 0 96 43.072 96 96v832z m-576-64h512v-768a32 32 0 0 0-32-32h-448a32 32 0 0 0-32 32v768z" p-id="2566" fill="#8a8a8a"></path><path d="M896 1024H128a32 32 0 0 1 0-64h768a32 32 0 0 1 0 64zM480 832h-128a32 32 0 0 1 0-64h128a32 32 0 0 1 0 64zM480 592.832h-128a32 32 0 0 1 0-64h128a32 32 0 0 1 0 64zM480 384h-128a32 32 0 0 1 0-64h128a32 32 0 0 1 0 64zM672 832h-64a32 32 0 0 1 0-64h64a32 32 0 0 1 0 64zM672 592.832h-64a32 32 0 0 1 0-64h64a32 32 0 0 1 0 64zM672 384h-64a32 32 0 0 1 0-64h64a32 32 0 0 1 0 64zM512 112.96a32 32 0 0 1-32-32V32a32 32 0 0 1 64 0v48.96a32 32 0 0 1-32 32z" p-id="2567" fill="#8a8a8a"></path></svg>