<svg t="1597892553531" class="icon" viewBox="0 0 1024 1024" version="1.1" xmlns="http://www.w3.org/2000/svg" p-id="4118" width="200" height="200"><path d="M503.04 998.034286a36.571429 36.571429 0 0 1-25.782857-62.354286l390.217143-390.4A261.302857 261.302857 0 0 0 497.92 175.542857L133.485714 539.977143a182.857143 182.857143 0 0 0 258.925715 258.925714L734.72 457.142857a101.668571 101.668571 0 0 0-143.725714-143.725714l-274.285715 274.285714a36.571429 36.571429 0 0 1-51.748571-51.565714l274.285714-274.285714A174.811429 174.811429 0 0 1 786.285714 508.342857L443.977143 850.651429A256 256 0 0 1 81.737143 488.228571L446.171429 123.977143a334.445714 334.445714 0 0 1 473.051428 473.051428L528.822857 987.428571a36.571429 36.571429 0 0 1-25.782857 10.605715z" p-id="4119" fill="#d81e06"></path></svg>