<?xml version="1.0" encoding="utf-8"?>
<svg version="1.1" xmlns:xlink="http://www.w3.org/1999/xlink" width="40px" height="50px" xmlns="http://www.w3.org/2000/svg">
  <defs>
    <filter x="238px" y="83px" width="40px" height="50px" filterUnits="userSpaceOnUse" id="filter104">
      <feOffset dx="1" dy="1" in="SourceAlpha" result="shadowOffsetInner" />
      <feGaussianBlur stdDeviation="2.5" in="shadowOffsetInner" result="shadowGaussian" />
      <feComposite in2="shadowGaussian" operator="atop" in="SourceAlpha" result="shadowComposite" />
      <feColorMatrix type="matrix" values="0 0 0 0 0  0 0 0 0 0  0 0 0 0 0  0 0 0 0.698039215686274 0  " in="shadowComposite" />
    </filter>
    <g id="widget105">
      <path d="M 257 126.036928468354  C 251.2 116.40734059591  242.5 110.629587872444  242.5 101  C 242.5 95.9857142857143  245.4 87.5  257 87.5  C 268.6 87.5  271.5 95.9857142857143  271.5 101  C 271.5 110.629587872444  262.8 116.40734059591  257 126.036928468354  Z " fill-rule="nonzero" fill="#009dd9" stroke="none" />
      <path d="M 257 127  C 251 117  242 111  242 101  C 242 95.8  245 87  257 87  C 269 87  272 95.8  272 101  C 272 111  263 117  257 127  Z M 257 125.073856936707  C 262.6 115.81468119182  271 110.259175744887  271 101  C 271 96.1714285714286  268.2 88  257 88  C 245.8 88  243 96.1714285714286  243 101  C 243 110.259175744887  251.4 115.81468119182  257 125.073856936707  Z " fill-rule="nonzero" fill="#ffffff" stroke="none" />
    </g>
  </defs>
  <g transform="matrix(1 0 0 1 -238 -83 )">
    <use xlink:href="#widget105" filter="url(#filter104)" />
    <use xlink:href="#widget105" />
  </g>
</svg>