<svg t="1598599324635" class="icon" viewBox="0 0 1024 1024" version="1.1" xmlns="http://www.w3.org/2000/svg" p-id="17612" width="200" height="200"><path d="M832.5 504.5h-224c-13.3 0-24-10.7-24-24s10.7-24 24-24h224c13.3 0 24 10.7 24 24s-10.7 24-24 24zM832.5 664.5h-224c-13.3 0-24-10.7-24-24s10.7-24 24-24h224c13.3 0 24 10.7 24 24s-10.7 24-24 24zM320.5 536.5c-48.5 0-88-39.5-88-88s39.5-88 88-88 88 39.5 88 88-39.5 88-88 88z m0-128c-22.1 0-40 17.9-40 40s17.9 40 40 40 40-17.9 40-40-17.9-40-40-40zM480.5 744.5h-320c-13.3 0-24-10.7-24-24 0-83.8 68.2-152 152-152h64c83.8 0 152 68.2 152 152 0 13.3-10.7 24-24 24z m-293.2-48h266.4c-10.9-45.8-52.1-80-101.2-80h-64c-49.1 0-90.3 34.2-101.2 80z" fill="#0079FE" p-id="17613"></path><path d="M992.5 920.5h-960c-13.3 0-24-10.7-24-24v-768c0-13.3 10.7-24 24-24h192c13.3 0 24 10.7 24 24 0 39.7 32.3 72 72 72s72-32.3 72-72c0-13.3 10.7-24 24-24h192c13.3 0 24 10.7 24 24 0 39.7 32.3 72 72 72s72-32.3 72-72c0-13.3 10.7-24 24-24h192c13.3 0 24 10.7 24 24v768c0 13.3-10.7 24-24 24z m-936-48h912v-720H822.1c-11.2 54.7-59.6 96-117.6 96-58 0-106.4-41.3-117.6-96H438.1c-11.2 54.7-59.6 96-117.6 96-57.9 0-106.4-41.3-117.6-96H56.5v720z" fill="#0079FE" p-id="17614"></path></svg>