<?xml version="1.0" encoding="utf-8"?>
<svg version="1.1" xmlns:xlink="http://www.w3.org/1999/xlink" width="30px" height="30px" xmlns="http://www.w3.org/2000/svg">
  <g transform="matrix(1 0 0 1 -70 -686 )">
    <path d="M 85 686  C 93.4 686  100 692.6  100 701  C 100 709.4  93.4 716  85 716  C 76.6 716  70 709.4  70 701  C 70 692.6  76.6 686  85 686  Z " fill-rule="nonzero" fill="#ffffff" stroke="none" />
    <path d="M 85 686.5  C 93.12 686.5  99.5 692.88  99.5 701  C 99.5 709.12  93.12 715.5  85 715.5  C 76.88 715.5  70.5 709.12  70.5 701  C 70.5 692.88  76.88 686.5  85 686.5  Z " stroke-width="1" stroke="#fb6260" fill="none" />
  </g>
</svg>