<?xml version="1.0" encoding="utf-8"?>
<svg version="1.1" xmlns:xlink="http://www.w3.org/1999/xlink" width="30px" height="30px" xmlns="http://www.w3.org/2000/svg">
  <g transform="matrix(1 0 0 1 -70 -580 )">
    <path d="M 85 580  C 93.4 580  100 586.6  100 595  C 100 603.4  93.4 610  85 610  C 76.6 610  70 603.4  70 595  C 70 586.6  76.6 580  85 580  Z " fill-rule="nonzero" fill="#ffffff" stroke="none" />
    <path d="M 85 580.5  C 93.12 580.5  99.5 586.88  99.5 595  C 99.5 603.12  93.12 609.5  85 609.5  C 76.88 609.5  70.5 603.12  70.5 595  C 70.5 586.88  76.88 580.5  85 580.5  Z " stroke-width="1" stroke="#58a3f7" fill="none" />
  </g>
</svg>