<?xml version="1.0" encoding="utf-8"?>
<svg version="1.1" xmlns:xlink="http://www.w3.org/1999/xlink" width="30px" height="30px" xmlns="http://www.w3.org/2000/svg">
  <g transform="matrix(1 0 0 1 -70 -1005 )">
    <path d="M 85 1005  C 93.4 1005  100 1011.6  100 1020  C 100 1028.4  93.4 1035  85 1035  C 76.6 1035  70 1028.4  70 1020  C 70 1011.6  76.6 1005  85 1005  Z " fill-rule="nonzero" fill="#ffffff" stroke="none" />
    <path d="M 85 1005.5  C 93.12 1005.5  99.5 1011.88  99.5 1020  C 99.5 1028.12  93.12 1034.5  85 1034.5  C 76.88 1034.5  70.5 1028.12  70.5 1020  C 70.5 1011.88  76.88 1005.5  85 1005.5  Z " stroke-width="1" stroke="#4bced0" fill="none" />
  </g>
</svg>