<?xml version="1.0" encoding="utf-8"?>
<svg version="1.1" xmlns:xlink="http://www.w3.org/1999/xlink" width="30px" height="30px" xmlns="http://www.w3.org/2000/svg">
  <g transform="matrix(1 0 0 1 -70 -906 )">
    <path d="M 85 906  C 93.4 906  100 912.6  100 921  C 100 929.4  93.4 936  85 936  C 76.6 936  70 929.4  70 921  C 70 912.6  76.6 906  85 906  Z " fill-rule="nonzero" fill="#ffffff" stroke="none" />
    <path d="M 85 906.5  C 93.12 906.5  99.5 912.88  99.5 921  C 99.5 929.12  93.12 935.5  85 935.5  C 76.88 935.5  70.5 929.12  70.5 921  C 70.5 912.88  76.88 906.5  85 906.5  Z " stroke-width="1" stroke="#8167f5" fill="none" />
  </g>
</svg>