<?xml version="1.0" encoding="utf-8"?>
<svg version="1.1" xmlns:xlink="http://www.w3.org/1999/xlink" width="30px" height="30px" xmlns="http://www.w3.org/2000/svg">
  <g transform="matrix(1 0 0 1 -70 -793 )">
    <path d="M 85 793  C 93.4 793  100 799.6  100 808  C 100 816.4  93.4 823  85 823  C 76.6 823  70 816.4  70 808  C 70 799.6  76.6 793  85 793  Z " fill-rule="nonzero" fill="#ffffff" stroke="none" />
    <path d="M 85 793.5  C 93.12 793.5  99.5 799.88  99.5 808  C 99.5 816.12  93.12 822.5  85 822.5  C 76.88 822.5  70.5 816.12  70.5 808  C 70.5 799.88  76.88 793.5  85 793.5  Z " stroke-width="1" stroke="#ffa94c" fill="none" />
  </g>
</svg>