<?xml version="1.0" encoding="utf-8"?>
<svg version="1.1" xmlns:xlink="http://www.w3.org/1999/xlink" width="401px" height="160px" xmlns="http://www.w3.org/2000/svg">
  <g transform="matrix(1 0 0 1 -120 -396 )">
    <path d="M 121 399  A 2 2 0 0 1 123 397 L 518 397  A 2 2 0 0 1 520 399 L 520 553  A 2 2 0 0 1 518 555 L 123 555  A 2 2 0 0 1 121 553 L 121 399  Z " fill-rule="nonzero" fill="#ffffff" stroke="none" />
    <path d="M 120.5 399  A 2.5 2.5 0 0 1 123 396.5 L 518 396.5  A 2.5 2.5 0 0 1 520.5 399 L 520.5 553  A 2.5 2.5 0 0 1 518 555.5 L 123 555.5  A 2.5 2.5 0 0 1 120.5 553 L 120.5 399  Z " stroke-width="1" stroke="#cccccc" fill="none" stroke-opacity="0.698039215686274" />
  </g>
</svg>