<?xml version="1.0" encoding="utf-8"?>
<svg version="1.1" xmlns:xlink="http://www.w3.org/1999/xlink" width="10px" height="27px" preserveAspectRatio="xMidYMin meet" viewBox="406 118  8 27" xmlns="http://www.w3.org/2000/svg">
  <path d="M 368.5 124  L 368.5 135  A 5 5 0 0 0 373.5 140.5 L 405 140.5  A 5 5 0 0 0 410.5 135.5 L 410.5 128  A 5 5 0 0 0 405.5 123.5 L 400 123.5  " stroke-width="1" stroke="#fb6260" fill="none" />
  <path d="M 368.5 123  A 3 3 0 0 0 365.5 126 A 3 3 0 0 0 368.5 129 A 3 3 0 0 0 371.5 126 A 3 3 0 0 0 368.5 123 Z M 401 129  L 401 118  L 400 118  L 400 129  L 401 129  Z " fill-rule="nonzero" fill="#fb6260" stroke="none" />
</svg>