<?xml version="1.0" encoding="utf-8"?>
<svg version="1.1" xmlns:xlink="http://www.w3.org/1999/xlink" width="367px" height="343px" xmlns="http://www.w3.org/2000/svg">
  <g transform="matrix(1 0 0 1 -684 -1372 )">
    <path d="M 685 1376  A 3 3 0 0 1 688 1373 L 1047 1373  A 3 3 0 0 1 1050 1376 L 1050 1711  A 3 3 0 0 1 1047 1714 L 688 1714  A 3 3 0 0 1 685 1711 L 685 1376  Z " fill-rule="nonzero" fill="#ff3399" stroke="none" fill-opacity="0.0980392156862745" />
    <path d="M 684.5 1376  A 3.5 3.5 0 0 1 688 1372.5 L 1047 1372.5  A 3.5 3.5 0 0 1 1050.5 1376 L 1050.5 1711  A 3.5 3.5 0 0 1 1047 1714.5 L 688 1714.5  A 3.5 3.5 0 0 1 684.5 1711 L 684.5 1376  Z " stroke-width="1" stroke-dasharray="9,4" stroke="#ff3399" fill="none" stroke-dashoffset="0.5" />
  </g>
</svg>