<?xml version="1.0" encoding="utf-8"?>
<svg version="1.1" xmlns:xlink="http://www.w3.org/1999/xlink" width="24px" height="24px" xmlns="http://www.w3.org/2000/svg">
  <defs>
    <mask fill="white" id="clip499">
      <path d="M 9 18  C 3.96000000000004 18  0 14.04  0 9  C 0 7.60943449587592  0.301451199459507 6.30108295524082  0.843864761560781 5.1354342149121  C 2.26738832711249 2.07627683583593  5.35056550412401 0  9 0  C 14.04 0  18 3.95999999999998  18 9  C 18 14.04  14.04 18  9 18  Z " fill-rule="evenodd" />
    </mask>
    <filter x="1055px" y="303px" width="24px" height="24px" filterUnits="userSpaceOnUse" id="filter500">
      <feOffset dx="0" dy="0" in="SourceAlpha" result="shadowOffsetInner" />
      <feGaussianBlur stdDeviation="1.5" in="shadowOffsetInner" result="shadowGaussian" />
      <feComposite in2="shadowGaussian" operator="atop" in="SourceAlpha" result="shadowComposite" />
      <feColorMatrix type="matrix" values="0 0 0 0 0.0823529411764706  0 0 0 0 0.83921568627451  0 0 0 0 0.729411764705882  0 0 0 0.349019607843137 0  " in="shadowComposite" />
    </filter>
    <g id="widget501">
      <path d="M 9 18  C 3.96000000000004 18  0 14.04  0 9  C 0 7.60943449587592  0.301451199459507 6.30108295524082  0.843864761560781 5.1354342149121  C 2.26738832711249 2.07627683583593  5.35056550412401 0  9 0  C 14.04 0  18 3.95999999999998  18 9  C 18 14.04  14.04 18  9 18  Z " fill-rule="nonzero" fill="#0099ff" stroke="none" transform="matrix(1 0 0 1 1058 306 )" />
      <path d="M 9 18  C 3.96000000000004 18  0 14.04  0 9  C 0 7.60943449587592  0.301451199459507 6.30108295524082  0.843864761560781 5.1354342149121  C 2.26738832711249 2.07627683583593  5.35056550412401 0  9 0  C 14.04 0  18 3.95999999999998  18 9  C 18 14.04  14.04 18  9 18  Z " stroke-width="2" stroke="#0099ff" fill="none" transform="matrix(1 0 0 1 1058 306 )" mask="url(#clip499)" />
    </g>
  </defs>
  <g transform="matrix(1 0 0 1 -1055 -303 )">
    <use xlink:href="#widget501" filter="url(#filter500)" />
    <use xlink:href="#widget501" />
  </g>
</svg>