<?xml version="1.0" encoding="utf-8"?>
<svg version="1.1" xmlns:xlink="http://www.w3.org/1999/xlink" width="18px" height="18px" preserveAspectRatio="xMinYMid meet" viewBox="725 1972  18 16" xmlns="http://www.w3.org/2000/svg">
  <path d="M 332.5 378  L 332.5 365  A 5 5 0 0 1 337 360.5 L 607 360.5  A 3 3 0 0 1 610 357.5 A 3 3 0 0 1 613 360.5 L 647 360.5  A 3 3 0 0 1 650 357.5 A 3 3 0 0 1 653 360.5 L 715 360.5  A 5 5 0 0 1 720.5 365 L 720.5 469  A 3 3 0 0 1 723.5 472 A 3 3 0 0 1 720.5 475 L 720.5 1976  A 5 5 0 0 0 725.5 1981.5 L 734 1981.5  " stroke-width="1" stroke="#ff0000" fill="none" stroke-opacity="0.298039215686275" />
  <path d="M 733 1976  L 733 1987  L 734 1987  L 734 1976  L 733 1976  Z " fill-rule="nonzero" fill="#ff0000" stroke="none" fill-opacity="0.298039215686275" />
</svg>