<?xml version="1.0" encoding="utf-8"?>
<svg version="1.1" xmlns:xlink="http://www.w3.org/1999/xlink" width="125px" height="840px" xmlns="http://www.w3.org/2000/svg">
  <g transform="matrix(1 0 0 1 -418 358 )">
    <path d="M 418.954589340886 467.390974967062  C 418.954589340886 467.390974967062  418.954589340886 -354.925589891005  418.954589340886 -354.925589891005  C 418.954589340886 -356.306301765582  420.073877466309 -357.425589891005  421.454589340886 -357.425589891005  C 421.454589340886 -357.425589891005  539.545410659114 -357.425589891005  539.545410659114 -357.425589891005  C 540.926122533691 -357.425589891005  542.045410659114 -356.306301765582  542.045410659114 -354.925589891005  C 542.045410659114 -354.925589891005  542.045410659114 467.390974967062  542.045410659114 467.390974967062  C 542.045410659114 468.771686841639  540.926122533691 469.890974967062  539.545410659114 469.890974967062  C 539.545410659114 469.890974967062  458.447255976709 469.890974967062  458.447255976709 469.890974967062  C 458.447255976709 469.890974967062  449.480516630615 481.125860695874  449.480516630615 481.125860695874  C 449.480516630615 481.125860695874  438.90392255399 469.890974967062  438.90392255399 469.890974967062  C 438.90392255399 469.890974967062  421.454589340886 469.890974967062  421.454589340886 469.890974967062  C 420.073877466309 469.890974967062  418.954589340886 468.771686841639  418.954589340886 467.390974967062  Z " fill-rule="nonzero" fill="#ffffff" stroke="none" />
    <path d="M 418.454589340886 467.390974967062  C 418.454589340886 467.390974967062  418.454589340886 -354.925589891005  418.454589340886 -354.925589891005  C 418.454589340886 -356.582444140497  419.797735091393 -357.925589891005  421.454589340886 -357.925589891005  C 421.454589340886 -357.925589891005  539.545410659114 -357.925589891005  539.545410659114 -357.925589891005  C 541.202264908607 -357.925589891005  542.545410659114 -356.582444140497  542.545410659114 -354.925589891005  C 542.545410659114 -354.925589891005  542.545410659114 467.390974967062  542.545410659114 467.390974967062  C 542.545410659114 469.047829216554  541.202264908607 470.390974967062  539.545410659114 470.390974967062  C 539.545410659114 470.390974967062  458.687922406025 470.390974967062  458.687922406025 470.390974967062  C 458.687922406025 470.390974967062  449.511658406282 481.888384836507  449.511658406282 481.888384836507  C 449.511658406282 481.888384836507  438.687922406025 470.390974967062  438.687922406025 470.390974967062  C 438.687922406025 470.390974967062  421.454589340886 470.390974967062  421.454589340886 470.390974967062  C 419.797735091393 470.390974967062  418.454589340886 469.047829216554  418.454589340886 467.390974967062  Z M 419.454589340886 467.390974967062  C 419.454589340886 468.495544466723  420.350019841224 469.390974967062  421.454589340886 469.390974967062  C 421.454589340886 469.390974967062  439.119922701952 469.390974967062  439.119922701952 469.390974967062  C 439.119922701952 469.390974967062  449.449374854948 480.363336555241  449.449374854948 480.363336555241  C 449.449374854948 480.363336555241  458.206589547392 469.390974967062  458.206589547392 469.390974967062  C 458.206589547392 469.390974967062  539.545410659114 469.390974967062  539.545410659114 469.390974967062  C 540.649980158776 469.390974967062  541.545410659114 468.495544466723  541.545410659114 467.390974967062  C 541.545410659114 467.390974967062  541.545410659114 -354.925589891005  541.545410659114 -354.925589891005  C 541.545410659114 -356.030159390666  540.649980158776 -356.925589891005  539.545410659114 -356.925589891005  C 539.545410659114 -356.925589891005  421.454589340886 -356.925589891005  421.454589340886 -356.925589891005  C 420.350019841224 -356.925589891005  419.454589340886 -356.030159390666  419.454589340886 -354.925589891005  C 419.454589340886 -354.925589891005  419.454589340886 467.390974967062  419.454589340886 467.390974967062  Z " fill-rule="nonzero" fill="#e9e9e9" stroke="none" />
  </g>
</svg>