<?xml version="1.0" encoding="utf-8"?>
<svg version="1.1" xmlns:xlink="http://www.w3.org/1999/xlink" width="15px" height="15px" xmlns="http://www.w3.org/2000/svg">
  <g transform="matrix(1 0 0 1 -54 -464 )">
    <path d="M 61.5 467.5  C 63.74 467.5  65.5 469.26  65.5 471.5  C 65.5 473.74  63.74 475.5  61.5 475.5  C 59.26 475.5  57.5 473.74  57.5 471.5  C 57.5 469.26  59.26 467.5  61.5 467.5  Z " fill-rule="nonzero" fill="#0079fe" stroke="none" />
    <path d="M 61.5 466  C 64.58 466  67 468.42  67 471.5  C 67 474.58  64.58 477  61.5 477  C 58.42 477  56 474.58  56 471.5  C 56 468.42  58.42 466  61.5 466  Z " stroke-width="4" stroke="#0079fe" fill="none" stroke-opacity="0.298039215686275" />
  </g>
</svg>