<?xml version="1.0" encoding="utf-8"?>
<svg version="1.1" xmlns:xlink="http://www.w3.org/1999/xlink" width="15px" height="15px" xmlns="http://www.w3.org/2000/svg">
  <g transform="matrix(1 0 0 1 -54 -2163 )">
    <path d="M 61.5 2164  C 65.14 2164  68 2166.86  68 2170.5  C 68 2174.14  65.14 2177  61.5 2177  C 57.86 2177  55 2174.14  55 2170.5  C 55 2166.86  57.86 2164  61.5 2164  Z " fill-rule="nonzero" fill="#ffffff" stroke="none" />
    <path d="M 61.5 2164  C 65.14 2164  68 2166.86  68 2170.5  C 68 2174.14  65.14 2177  61.5 2177  C 57.86 2177  55 2174.14  55 2170.5  C 55 2166.86  57.86 2164  61.5 2164  Z " stroke-width="2" stroke="#0079fe" fill="none" />
  </g>
</svg>