<?xml version="1.0" encoding="utf-8"?>
<svg version="1.1" xmlns:xlink="http://www.w3.org/1999/xlink" width="100px" height="75px" xmlns="http://www.w3.org/2000/svg">
  <defs>
    <linearGradient gradientUnits="userSpaceOnUse" x1="570" y1="251" x2="570" y2="326" id="LinearGradient247">
      <stop id="Stop248" stop-color="#ffffff" offset="0" />
      <stop id="Stop249" stop-color="#f2f2f2" offset="0" />
      <stop id="Stop250" stop-color="#e4e4e4" offset="1" />
      <stop id="Stop251" stop-color="#ffffff" offset="1" />
    </linearGradient>
  </defs>
  <g transform="matrix(1 0 0 1 -520 -251 )">
    <path d="M 570 251  C 598 251  620 267.5  620 288.5  C 620 309.5  598 326  570 326  C 542 326  520 309.5  520 288.5  C 520 267.5  542 251  570 251  Z " fill-rule="nonzero" fill="url(#LinearGradient247)" stroke="none" />
    <path d="M 570 251.5  C 597.72 251.5  619.5 267.78  619.5 288.5  C 619.5 309.22  597.72 325.5  570 325.5  C 542.28 325.5  520.5 309.22  520.5 288.5  C 520.5 267.78  542.28 251.5  570 251.5  Z " stroke-width="1" stroke="#797979" fill="none" />
  </g>
</svg>