<?xml version="1.0" encoding="utf-8"?>
<svg version="1.1" xmlns:xlink="http://www.w3.org/1999/xlink" width="100px" height="60px" xmlns="http://www.w3.org/2000/svg">
  <defs>
    <linearGradient gradientUnits="userSpaceOnUse" x1="568" y1="1254" x2="568" y2="1314" id="LinearGradient277">
      <stop id="Stop278" stop-color="#ffffff" offset="0" />
      <stop id="Stop279" stop-color="#f2f2f2" offset="0" />
      <stop id="Stop280" stop-color="#e4e4e4" offset="1" />
      <stop id="Stop281" stop-color="#ffffff" offset="1" />
    </linearGradient>
  </defs>
  <g transform="matrix(1 0 0 1 -518 -1254 )">
    <path d="M 568 1254  C 596 1254  618 1267.2  618 1284  C 618 1300.8  596 1314  568 1314  C 540 1314  518 1300.8  518 1284  C 518 1267.2  540 1254  568 1254  Z " fill-rule="nonzero" fill="url(#LinearGradient277)" stroke="none" />
    <path d="M 568 1254.5  C 595.72 1254.5  617.5 1267.48  617.5 1284  C 617.5 1300.52  595.72 1313.5  568 1313.5  C 540.28 1313.5  518.5 1300.52  518.5 1284  C 518.5 1267.48  540.28 1254.5  568 1254.5  Z " stroke-width="1" stroke="#797979" fill="none" />
  </g>
</svg>