<?xml version="1.0" encoding="utf-8"?>
<svg version="1.1" xmlns:xlink="http://www.w3.org/1999/xlink" width="100px" height="75px" xmlns="http://www.w3.org/2000/svg">
  <defs>
    <linearGradient gradientUnits="userSpaceOnUse" x1="570" y1="273" x2="570" y2="348" id="LinearGradient1266">
      <stop id="Stop1267" stop-color="#ffffff" offset="0" />
      <stop id="Stop1268" stop-color="#f2f2f2" offset="0" />
      <stop id="Stop1269" stop-color="#e4e4e4" offset="1" />
      <stop id="Stop1270" stop-color="#ffffff" offset="1" />
    </linearGradient>
  </defs>
  <g transform="matrix(1 0 0 1 -520 -273 )">
    <path d="M 570 273  C 598 273  620 289.5  620 310.5  C 620 331.5  598 348  570 348  C 542 348  520 331.5  520 310.5  C 520 289.5  542 273  570 273  Z " fill-rule="nonzero" fill="url(#LinearGradient1266)" stroke="none" />
    <path d="M 570 273.5  C 597.72 273.5  619.5 289.78  619.5 310.5  C 619.5 331.22  597.72 347.5  570 347.5  C 542.28 347.5  520.5 331.22  520.5 310.5  C 520.5 289.78  542.28 273.5  570 273.5  Z " stroke-width="1" stroke="#797979" fill="none" />
  </g>
</svg>