<?xml version="1.0" encoding="utf-8"?>
<svg version="1.1" xmlns:xlink="http://www.w3.org/1999/xlink" width="100px" height="60px" xmlns="http://www.w3.org/2000/svg">
  <defs>
    <linearGradient gradientUnits="userSpaceOnUse" x1="568" y1="1276" x2="568" y2="1336" id="LinearGradient1159">
      <stop id="Stop1160" stop-color="#ffffff" offset="0" />
      <stop id="Stop1161" stop-color="#f2f2f2" offset="0" />
      <stop id="Stop1162" stop-color="#e4e4e4" offset="1" />
      <stop id="Stop1163" stop-color="#ffffff" offset="1" />
    </linearGradient>
  </defs>
  <g transform="matrix(1 0 0 1 -518 -1276 )">
    <path d="M 568 1276  C 596 1276  618 1289.2  618 1306  C 618 1322.8  596 1336  568 1336  C 540 1336  518 1322.8  518 1306  C 518 1289.2  540 1276  568 1276  Z " fill-rule="nonzero" fill="url(#LinearGradient1159)" stroke="none" />
    <path d="M 568 1276.5  C 595.72 1276.5  617.5 1289.48  617.5 1306  C 617.5 1322.52  595.72 1335.5  568 1335.5  C 540.28 1335.5  518.5 1322.52  518.5 1306  C 518.5 1289.48  540.28 1276.5  568 1276.5  Z " stroke-width="1" stroke="#797979" fill="none" />
  </g>
</svg>