<?xml version="1.0" encoding="utf-8"?>
<svg version="1.1" xmlns:xlink="http://www.w3.org/1999/xlink" width="115px" height="10px" preserveAspectRatio="xMinYMid meet" viewBox="510 346  115 8" xmlns="http://www.w3.org/2000/svg">
  <path d="M 515.5 372  L 515.5 355  A 5 5 0 0 1 520 350.5 L 607 350.5  A 3 3 0 0 1 610 347.5 A 3 3 0 0 1 613 350.5 L 615 350.5  A 5 5 0 0 1 620.5 355 L 620.5 1459  A 3 3 0 0 1 623.5 1462 A 3 3 0 0 1 620.5 1465 L 620.5 1683  A 3 3 0 0 1 623.5 1686 A 3 3 0 0 1 620.5 1689 L 620.5 1731  A 5 5 0 0 0 625.5 1736.5 L 632 1736.5  " stroke-width="1" stroke="#ff0000" fill="none" stroke-opacity="0.298039215686275" />
  <path d="M 631 1731  L 631 1742  L 632 1742  L 632 1731  L 631 1731  Z " fill-rule="nonzero" fill="#ff0000" stroke="none" fill-opacity="0.298039215686275" />
</svg>