<?xml version="1.0" encoding="utf-8"?>
<svg version="1.1" xmlns:xlink="http://www.w3.org/1999/xlink" width="756px" height="136px" xmlns="http://www.w3.org/2000/svg">
  <g transform="matrix(1 0 0 1 -67 -1051 )">
    <path d="M 0 79.2088888888888  C 0 79.2088888888888  25.061737804878 78.0266666666667  65.0457317073171 78.0266666666667  C 105.029725609756 78.0266666666667  101.77743902439 102.853333333333  134.682926829268 102.853333333333  C 167.588414634146 102.853333333333  155.567517666379 56.9289243756065  205.850609756097 57.3377777777776  C 242.199695121951 57.6333333333333  247.49381865672 73.1337485604644  269.365853658537 73.2977777777776  C 308.775914634146 73.5933333333333  305.332317073171 0.295555555555287  344.359756097561 0.591111111110977  C 383.387195121951 0.886666666666667  363.138907729123 76.7886142668922  407.875 81.5733333333333  C 432.745426829268 84.2333333333333  442.884908536585 81.13  475.981707317073 83.3466666666667  C 509.078506097561 85.5633333333333  508.504573170732 130.34  547.149390243902 130.635555555555  C 585.794207317073 130.931111111111  577.502862062153 114.549245710944  616.021341463415 114.675555555555  C 657.643216932765 114.812042060337  659.640243902439 131.817777777778  690.25 132.408888888889  C 720.859756097561 133  733.356631727474 99.7609917355374  752.234756097561 101.08  " stroke-width="2" stroke="#3dd283" fill="none" transform="matrix(1 0 0 1 68 1052 )" />
  </g>
</svg>