<?xml version="1.0" encoding="utf-8"?>
<svg version="1.1" xmlns:xlink="http://www.w3.org/1999/xlink" width="15px" height="24px" xmlns="http://www.w3.org/2000/svg">
  <g transform="matrix(1 0 0 1 -362 -1253 )">
    <path d="M 15 1.71428571428571  L 13.9285714285714 1.71428571428571  C 10.3571428571429 1.71428571428571  8.57142857142857 2.71428571428571  8.57142857142857 4.71428571428571  L 8.57142857142857 10.2857142857143  L 10.7142857142857 10.2857142857143  L 10.7142857142857 12  L 8.57142857142857 12  L 8.57142857142857 19.2857142857143  C 8.57142857142857 21.2857142857143  10.3571428571429 22.2857142857143  13.9285714285714 22.2857142857143  L 15 22.2857142857143  L 15 24  L 13.9285714285714 24  C 10.8928571428571 24  8.75 23.3482142857143  7.5 22.0446428571429  C 6.25 23.3482142857143  4.10714285714286 24  1.07142857142857 24  L 0 24  L 0 22.2857142857143  L 1.07142857142857 22.2857142857143  C 4.64285714285714 22.2857142857143  6.42857142857143 21.2857142857143  6.42857142857143 19.2857142857143  L 6.42857142857143 12  L 4.28571428571429 12  L 4.28571428571429 10.2857142857143  L 6.42857142857143 10.2857142857143  L 6.42857142857143 4.71428571428571  C 6.42857142857143 2.71428571428571  4.64285714285714 1.71428571428571  1.07142857142857 1.71428571428571  L 0 1.71428571428571  L 0 0  L 1.07142857142857 0  C 4.10714285714286 0  6.25 0.651785714285715  7.5 1.95535714285714  C 8.75 0.651785714285715  10.8928571428571 0  13.9285714285714 0  L 15 0  L 15 1.71428571428571  Z " fill-rule="nonzero" fill="#4094d0" stroke="none" transform="matrix(1 0 0 1 362 1253 )" />
  </g>
</svg>