<?xml version="1.0" encoding="utf-8"?>
<svg version="1.1" xmlns:xlink="http://www.w3.org/1999/xlink" width="24px" height="24px" xmlns="http://www.w3.org/2000/svg">
  <defs>
    <mask fill="white" id="clip1564">
      <path d="M 9 18  C 3.96000000000001 18  0 14.04  0 9  C 0 3.96000000000004  3.96000000000001 0  9 0  C 14.04 0  18 3.96000000000004  18 9  C 18 13.9403818609208  14.1949957164277 17.8430352808672  9.29756639073858 17.995381018384  C 9.19881434900745 17.998452926446  9.09961813907927 18  9 18  Z " fill-rule="evenodd" />
    </mask>
    <filter x="222px" y="937px" width="24px" height="24px" filterUnits="userSpaceOnUse" id="filter1565">
      <feOffset dx="0" dy="0" in="SourceAlpha" result="shadowOffsetInner" />
      <feGaussianBlur stdDeviation="1.5" in="shadowOffsetInner" result="shadowGaussian" />
      <feComposite in2="shadowGaussian" operator="atop" in="SourceAlpha" result="shadowComposite" />
      <feColorMatrix type="matrix" values="0 0 0 0 0.0823529411764706  0 0 0 0 0.83921568627451  0 0 0 0 0.729411764705882  0 0 0 0.349019607843137 0  " in="shadowComposite" />
    </filter>
    <g id="widget1566">
      <path d="M 9 18  C 3.96000000000001 18  0 14.04  0 9  C 0 3.96000000000004  3.96000000000001 0  9 0  C 14.04 0  18 3.96000000000004  18 9  C 18 13.9403818609208  14.1949957164277 17.8430352808672  9.29756639073858 17.995381018384  C 9.19881434900745 17.998452926446  9.09961813907927 18  9 18  Z " fill-rule="nonzero" fill="#0099ff" stroke="none" transform="matrix(1 0 0 1 225 940 )" />
      <path d="M 9 18  C 3.96000000000001 18  0 14.04  0 9  C 0 3.96000000000004  3.96000000000001 0  9 0  C 14.04 0  18 3.96000000000004  18 9  C 18 13.9403818609208  14.1949957164277 17.8430352808672  9.29756639073858 17.995381018384  C 9.19881434900745 17.998452926446  9.09961813907927 18  9 18  Z " stroke-width="2" stroke="#0099ff" fill="none" transform="matrix(1 0 0 1 225 940 )" mask="url(#clip1564)" />
    </g>
  </defs>
  <g transform="matrix(1 0 0 1 -222 -937 )">
    <use xlink:href="#widget1566" filter="url(#filter1565)" />
    <use xlink:href="#widget1566" />
  </g>
</svg>