<?xml version="1.0" encoding="utf-8"?>
<svg version="1.1" xmlns:xlink="http://www.w3.org/1999/xlink" width="160px" height="67px" xmlns="http://www.w3.org/2000/svg">
  <g transform="matrix(1 0 0 1 -308 -356 )">
    <path d="M 309 407.4  C 309 407.4  309 361  309 361  C 309 358.790861000677  310.790861000677 357  313 357  C 313 357  463 357  463 357  C 465.209138999323 357  467 358.790861000677  467 361  C 467 361  467 407.4  467 407.4  C 467 409.609138999323  465.209138999323 411.4  463 411.4  C 463 411.4  398.446291853377 411.4  398.446291853377 411.4  C 398.446291853377 411.4  388.857142857143 420.879558721992  388.857142857143 420.879558721992  C 388.857142857143 420.879558721992  379.267993860908 411.4  379.267993860908 411.4  C 379.267993860908 411.4  313 411.4  313 411.4  C 310.790861000677 411.4  309 409.609138999323  309 407.4  Z " fill-rule="nonzero" fill="#333333" stroke="none" fill-opacity="0.8" />
  </g>
</svg>