<?xml version="1.0" encoding="utf-8"?>
<svg version="1.1" xmlns:xlink="http://www.w3.org/1999/xlink" width="10px" height="5px" preserveAspectRatio="xMinYMid meet" viewBox="1063 348  10 3" xmlns="http://www.w3.org/2000/svg">
  <path d="M 1068 352.5  L 643 352.5  A 3 3 0 0 0 640 349.5 A 3 3 0 0 0 637 352.5 L 635 352.5  A 5 5 0 0 0 630.5 357 L 630.5 452  A 3 3 0 0 1 633.5 455 A 3 3 0 0 1 630.5 458 L 630.5 2569  A 5 5 0 0 1 625.5 2574.5 L 616 2574.5  " stroke-width="1" stroke="#ff0000" fill="none" stroke-opacity="0.298039215686275" />
  <path d="M 617 2580  L 617 2569  L 616 2569  L 616 2580  L 617 2580  Z " fill-rule="nonzero" fill="#ff0000" stroke="none" fill-opacity="0.298039215686275" />
</svg>