<?xml version="1.0" encoding="utf-8"?>
<svg version="1.1" xmlns:xlink="http://www.w3.org/1999/xlink" width="488px" height="10px" preserveAspectRatio="xMinYMid meet" viewBox="267 336  488 8" xmlns="http://www.w3.org/2000/svg">
  <path d="M 272.5 365  L 272.5 345  A 5 5 0 0 1 277 340.5 L 587 340.5  A 3 3 0 0 1 590 337.5 A 3 3 0 0 1 593 340.5 L 603 340.5  A 3 3 0 0 1 606 337.5 A 3 3 0 0 1 609 340.5 L 745 340.5  A 5 5 0 0 1 750.5 345 L 750.5 353  A 3 3 0 0 1 753.5 356 A 3 3 0 0 1 750.5 359 L 750.5 417  A 3 3 0 0 1 753.5 420 A 3 3 0 0 1 750.5 423 L 750.5 1681  A 5 5 0 0 0 755.5 1686.5 L 768 1686.5  " stroke-width="1" stroke="#ff0000" fill="none" stroke-opacity="0.298039215686275" />
  <path d="M 767 1681  L 767 1692  L 768 1692  L 768 1681  L 767 1681  Z " fill-rule="nonzero" fill="#ff0000" stroke="none" fill-opacity="0.298039215686275" />
</svg>