<?xml version="1.0" encoding="utf-8"?>
<svg version="1.1" xmlns:xlink="http://www.w3.org/1999/xlink" width="737px" height="10px" preserveAspectRatio="xMinYMid meet" viewBox="98 276  737 8" xmlns="http://www.w3.org/2000/svg">
  <path d="M 103.5 299  L 103.5 285  A 5 5 0 0 1 108 280.5 L 587 280.5  A 3 3 0 0 1 590 277.5 A 3 3 0 0 1 593 280.5 L 603 280.5  A 3 3 0 0 1 606 277.5 A 3 3 0 0 1 609 280.5 L 825 280.5  A 5 5 0 0 1 830.5 285 L 830.5 353  A 3 3 0 0 1 833.5 356 A 3 3 0 0 1 830.5 359 L 830.5 417  A 3 3 0 0 1 833.5 420 A 3 3 0 0 1 830.5 423 L 830.5 1483  A 5 5 0 0 0 835.5 1488.5 L 845 1488.5  " stroke-width="1" stroke="#ff0000" fill="none" stroke-opacity="0.298039215686275" />
  <path d="M 844 1483  L 844 1494  L 845 1494  L 845 1483  L 844 1483  Z " fill-rule="nonzero" fill="#ff0000" stroke="none" fill-opacity="0.298039215686275" />
</svg>