<?xml version="1.0" encoding="utf-8"?>
<svg version="1.1" xmlns:xlink="http://www.w3.org/1999/xlink" width="30px" height="30px" xmlns="http://www.w3.org/2000/svg">
  <g transform="matrix(1 0 0 1 -19 -1132 )">
    <path d="M 34 1133  C 41.84 1133  48 1139.16  48 1147  C 48 1154.84  41.84 1161  34 1161  C 26.16 1161  20 1154.84  20 1147  C 20 1139.16  26.16 1133  34 1133  Z " fill-rule="nonzero" fill="#0079fe" stroke="none" />
    <path d="M 34 1133  C 41.84 1133  48 1139.16  48 1147  C 48 1154.84  41.84 1161  34 1161  C 26.16 1161  20 1154.84  20 1147  C 20 1139.16  26.16 1133  34 1133  Z " stroke-width="2" stroke="#0079fe" fill="none" />
  </g>
</svg>