<?xml version="1.0" encoding="utf-8"?>
<svg version="1.1" xmlns:xlink="http://www.w3.org/1999/xlink" width="367px" height="343px" xmlns="http://www.w3.org/2000/svg">
  <g transform="matrix(1 0 0 1 -682 -1361 )">
    <path d="M 683 1365  A 3 3 0 0 1 686 1362 L 1045 1362  A 3 3 0 0 1 1048 1365 L 1048 1700  A 3 3 0 0 1 1045 1703 L 686 1703  A 3 3 0 0 1 683 1700 L 683 1365  Z " fill-rule="nonzero" fill="#ff3399" stroke="none" fill-opacity="0.0980392156862745" />
    <path d="M 682.5 1365  A 3.5 3.5 0 0 1 686 1361.5 L 1045 1361.5  A 3.5 3.5 0 0 1 1048.5 1365 L 1048.5 1700  A 3.5 3.5 0 0 1 1045 1703.5 L 686 1703.5  A 3.5 3.5 0 0 1 682.5 1700 L 682.5 1365  Z " stroke-width="1" stroke-dasharray="9,4" stroke="#ff3399" fill="none" stroke-dashoffset="0.5" />
  </g>
</svg>