<?xml version="1.0" encoding="utf-8"?>
<svg version="1.1" xmlns:xlink="http://www.w3.org/1999/xlink" width="30px" height="30px" xmlns="http://www.w3.org/2000/svg">
  <g transform="matrix(1 0 0 1 -63 -1904 )">
    <path d="M 78 1905  C 85.84 1905  92 1911.16  92 1919  C 92 1926.84  85.84 1933  78 1933  C 70.16 1933  64 1926.84  64 1919  C 64 1911.16  70.16 1905  78 1905  Z " fill-rule="nonzero" fill="#ffffff" stroke="none" />
    <path d="M 78 1905  C 85.84 1905  92 1911.16  92 1919  C 92 1926.84  85.84 1933  78 1933  C 70.16 1933  64 1926.84  64 1919  C 64 1911.16  70.16 1905  78 1905  Z " stroke-width="2" stroke="#0079fe" fill="none" />
  </g>
</svg>