<?xml version="1.0" encoding="utf-8"?>
<svg version="1.1" xmlns:xlink="http://www.w3.org/1999/xlink" width="10px" height="977px" preserveAspectRatio="xMidYMin meet" viewBox="156 405  8 977" xmlns="http://www.w3.org/2000/svg">
  <path d="M 765.5 432  L 765.5 415  A 5 5 0 0 0 760 410.5 L 634 410.5  A 3 3 0 0 0 631 407.5 A 3 3 0 0 0 628 410.5 L 623 410.5  A 3 3 0 0 0 620 407.5 A 3 3 0 0 0 617 410.5 L 613 410.5  A 3 3 0 0 0 610 407.5 A 3 3 0 0 0 607 410.5 L 165 410.5  A 5 5 0 0 0 160.5 415.5 L 160.5 1372  A 5 5 0 0 0 165.5 1377.5 L 174 1377.5  " stroke-width="1" stroke="#ff0000" fill="none" stroke-opacity="0.298039215686275" />
  <path d="M 173 1372  L 173 1383  L 174 1383  L 174 1372  L 173 1372  Z " fill-rule="nonzero" fill="#ff0000" stroke="none" fill-opacity="0.298039215686275" />
</svg>