<?xml version="1.0" encoding="utf-8"?>
<svg version="1.1" xmlns:xlink="http://www.w3.org/1999/xlink" width="407px" height="166px" xmlns="http://www.w3.org/2000/svg">
  <defs>
    <filter x="117px" y="393px" width="407px" height="166px" filterUnits="userSpaceOnUse" id="filter351">
      <feOffset dx="0" dy="0" in="SourceAlpha" result="shadowOffsetInner" />
      <feGaussianBlur stdDeviation="1.5" in="shadowOffsetInner" result="shadowGaussian" />
      <feComposite in2="shadowGaussian" operator="atop" in="SourceAlpha" result="shadowComposite" />
      <feColorMatrix type="matrix" values="0 0 0 0 0  0 0 0 0 0.474509803921569  0 0 0 0 0.996078431372549  0 0 0 0.8 0  " in="shadowComposite" />
    </filter>
    <g id="widget352">
      <path d="M 120.5 399  A 2.5 2.5 0 0 1 123 396.5 L 518 396.5  A 2.5 2.5 0 0 1 520.5 399 L 520.5 553  A 2.5 2.5 0 0 1 518 555.5 L 123 555.5  A 2.5 2.5 0 0 1 120.5 553 L 120.5 399  Z " fill-rule="nonzero" fill="#ffffff" stroke="none" />
      <path d="M 120.5 399  A 2.5 2.5 0 0 1 123 396.5 L 518 396.5  A 2.5 2.5 0 0 1 520.5 399 L 520.5 553  A 2.5 2.5 0 0 1 518 555.5 L 123 555.5  A 2.5 2.5 0 0 1 120.5 553 L 120.5 399  Z " stroke-width="1" stroke="#0079fe" fill="none" />
    </g>
  </defs>
  <g transform="matrix(1 0 0 1 -117 -393 )">
    <use xlink:href="#widget352" filter="url(#filter351)" />
    <use xlink:href="#widget352" />
  </g>
</svg>