<?xml version="1.0" encoding="utf-8"?>
<svg version="1.1" xmlns:xlink="http://www.w3.org/1999/xlink" width="18px" height="18px" preserveAspectRatio="xMinYMid meet" viewBox="325 1318  18 16" xmlns="http://www.w3.org/2000/svg">
  <path d="M 790.5 430  L 790.5 415  A 5 5 0 0 0 785 410.5 L 643 410.5  A 3 3 0 0 0 640 407.5 A 3 3 0 0 0 637 410.5 L 613 410.5  A 3 3 0 0 0 610 407.5 A 3 3 0 0 0 607 410.5 L 518 410.5  A 3 3 0 0 0 515 407.5 A 3 3 0 0 0 512 410.5 L 325 410.5  A 5 5 0 0 0 320.5 415.5 L 320.5 1322  A 5 5 0 0 0 325.5 1327.5 L 334 1327.5  " stroke-width="1" stroke="#ff0000" fill="none" stroke-opacity="0.298039215686275" />
  <path d="M 333 1322  L 333 1333  L 334 1333  L 334 1322  L 333 1322  Z " fill-rule="nonzero" fill="#ff0000" stroke="none" fill-opacity="0.298039215686275" />
</svg>