<?xml version="1.0" encoding="utf-8"?>
<svg version="1.1" xmlns:xlink="http://www.w3.org/1999/xlink" width="29px" height="10px" preserveAspectRatio="xMinYMid meet" viewBox="76 1852  29 8" xmlns="http://www.w3.org/2000/svg">
  <path d="M 653.5 297  L 653.5 275  A 5 5 0 0 0 648.5 270.5 L 105 270.5  A 5 5 0 0 0 100.5 275 L 100.5 327  A 3 3 0 0 1 103.5 330 A 3 3 0 0 1 100.5 333 L 100.5 397  A 3 3 0 0 1 103.5 400 A 3 3 0 0 1 100.5 403 L 100.5 1851  A 5 5 0 0 1 95.5 1856.5 L 81 1856.5  " stroke-width="1" stroke="#ff0000" fill="none" stroke-opacity="0.298039215686275" />
  <path d="M 82 1862  L 82 1851  L 81 1851  L 81 1862  L 82 1862  Z " fill-rule="nonzero" fill="#ff0000" stroke="none" fill-opacity="0.298039215686275" />
</svg>