<?xml version="1.0" encoding="utf-8"?>
<svg version="1.1" xmlns:xlink="http://www.w3.org/1999/xlink" width="730px" height="10px" preserveAspectRatio="xMinYMid meet" viewBox="65 406  730 8" xmlns="http://www.w3.org/2000/svg">
  <path d="M 790.5 430  L 790.5 415  A 5 5 0 0 0 785 410.5 L 643 410.5  A 3 3 0 0 0 640 407.5 A 3 3 0 0 0 637 410.5 L 613 410.5  A 3 3 0 0 0 610 407.5 A 3 3 0 0 0 607 410.5 L 518 410.5  A 3 3 0 0 0 515 407.5 A 3 3 0 0 0 512 410.5 L 75 410.5  A 5 5 0 0 0 70.5 415.5 L 70.5 1322  A 5 5 0 0 0 75.5 1327.5 L 83 1327.5  " stroke-width="1" stroke="#ff0000" fill="none" stroke-opacity="0.298039215686275" />
  <path d="M 82 1322  L 82 1333  L 83 1333  L 83 1322  L 82 1322  Z " fill-rule="nonzero" fill="#ff0000" stroke="none" fill-opacity="0.298039215686275" />
</svg>