<?xml version="1.0" encoding="utf-8"?>
<svg version="1.1" xmlns:xlink="http://www.w3.org/1999/xlink" width="300px" height="30px" xmlns="http://www.w3.org/2000/svg">
  <g transform="matrix(1 0 0 1 -25 -54 )">
    <path d="M 26 69  A 14 14 0 0 1 40 55 L 310 55  A 14 14 0 0 1 324 69 A 14 14 0 0 1 310 83 L 40 83  A 14 14 0 0 1 26 69 Z " fill-rule="nonzero" fill="#ffffff" stroke="none" />
    <path d="M 25.5 69  A 14.5 14.5 0 0 1 40 54.5 L 310 54.5  A 14.5 14.5 0 0 1 324.5 69 A 14.5 14.5 0 0 1 310 83.5 L 40 83.5  A 14.5 14.5 0 0 1 25.5 69 Z " stroke-width="1" stroke="#e4e4e4" fill="none" stroke-opacity="0.698039215686274" />
  </g>
</svg>