<?xml version="1.0" encoding="utf-8"?>
<svg version="1.1" xmlns:xlink="http://www.w3.org/1999/xlink" width="80px" height="35px" xmlns="http://www.w3.org/2000/svg">
  <g transform="matrix(1 0 0 1 -360 -90 )">
    <path d="M 360.5 95  A 4.5 4.5 0 0 1 365 90.5 L 435 90.5  A 4.5 4.5 0 0 1 439.5 95 L 439.5 120  A 4.5 4.5 0 0 1 435 124.5 L 365 124.5  A 4.5 4.5 0 0 1 360.5 120 L 360.5 95  Z " fill-rule="nonzero" fill="#f9f9f9" stroke="none" fill-opacity="0" />
    <path d="M 360.5 95  A 4.5 4.5 0 0 1 365 90.5 L 435 90.5  A 4.5 4.5 0 0 1 439.5 95 L 439.5 120  A 4.5 4.5 0 0 1 435 124.5 L 365 124.5  A 4.5 4.5 0 0 1 360.5 120 L 360.5 95  Z " stroke-width="1" stroke="#e4e4e4" fill="none" />
  </g>
</svg>