<?xml version="1.0" encoding="utf-8"?>
<svg version="1.1" xmlns:xlink="http://www.w3.org/1999/xlink" width="59px" height="25px" xmlns="http://www.w3.org/2000/svg">
  <g transform="matrix(1 0 0 1 -1339 -15 )">
    <path d="M 1340 20  A 4 4 0 0 1 1344 16 L 1393 16  A 4 4 0 0 1 1397 20 L 1397 35  A 4 4 0 0 1 1393 39 L 1344 39  A 4 4 0 0 1 1340 35 L 1340 20  Z " fill-rule="nonzero" fill="#fef3f3" stroke="none" fill-opacity="0.996078431372549" />
    <path d="M 1339.5 20  A 4.5 4.5 0 0 1 1344 15.5 L 1393 15.5  A 4.5 4.5 0 0 1 1397.5 20 L 1397.5 35  A 4.5 4.5 0 0 1 1393 39.5 L 1344 39.5  A 4.5 4.5 0 0 1 1339.5 35 L 1339.5 20  Z " stroke-width="1" stroke="#f89898" fill="none" stroke-opacity="0.996078431372549" />
  </g>
</svg>