<?xml version="1.0" encoding="utf-8"?>
<svg version="1.1" xmlns:xlink="http://www.w3.org/1999/xlink" width="24px" height="24px" xmlns="http://www.w3.org/2000/svg">
  <defs>
    <mask fill="white" id="clip1225">
      <path d="M 9 18  C 3.98807289489605 18  0.0441480562409424 14.0839916896878  0.000368080609746357 9.08411766563859  C 0.000122859434668499 9.05611228267364  0 9.0280728948961  0 9  C 0 3.96000000000001  3.96000000000004 0  9 0  C 14.04 0  18 3.96000000000001  18 9  C 18 14.04  14.04 18  9 18  Z " fill-rule="evenodd" />
    </mask>
    <filter x="649px" y="171px" width="24px" height="24px" filterUnits="userSpaceOnUse" id="filter1226">
      <feOffset dx="0" dy="0" in="SourceAlpha" result="shadowOffsetInner" />
      <feGaussianBlur stdDeviation="1.5" in="shadowOffsetInner" result="shadowGaussian" />
      <feComposite in2="shadowGaussian" operator="atop" in="SourceAlpha" result="shadowComposite" />
      <feColorMatrix type="matrix" values="0 0 0 0 0.0823529411764706  0 0 0 0 0.83921568627451  0 0 0 0 0.729411764705882  0 0 0 0.349019607843137 0  " in="shadowComposite" />
    </filter>
    <g id="widget1227">
      <path d="M 9 18  C 3.98807289489605 18  0.0441480562409424 14.0839916896878  0.000368080609746357 9.08411766563859  C 0.000122859434668499 9.05611228267364  0 9.0280728948961  0 9  C 0 3.96000000000001  3.96000000000004 0  9 0  C 14.04 0  18 3.96000000000001  18 9  C 18 14.04  14.04 18  9 18  Z " fill-rule="nonzero" fill="#fb6260" stroke="none" transform="matrix(1 0 0 1 652 174 )" />
      <path d="M 9 18  C 3.98807289489605 18  0.0441480562409424 14.0839916896878  0.000368080609746357 9.08411766563859  C 0.000122859434668499 9.05611228267364  0 9.0280728948961  0 9  C 0 3.96000000000001  3.96000000000004 0  9 0  C 14.04 0  18 3.96000000000001  18 9  C 18 14.04  14.04 18  9 18  Z " stroke-width="2" stroke="#fb6260" fill="none" transform="matrix(1 0 0 1 652 174 )" mask="url(#clip1225)" />
    </g>
  </defs>
  <g transform="matrix(1 0 0 1 -649 -171 )">
    <use xlink:href="#widget1227" filter="url(#filter1226)" />
    <use xlink:href="#widget1227" />
  </g>
</svg>