<?xml version="1.0" encoding="utf-8"?>
<svg version="1.1" xmlns:xlink="http://www.w3.org/1999/xlink" width="25px" height="10px" preserveAspectRatio="xMinYMid meet" viewBox="770 812  25 8" xmlns="http://www.w3.org/2000/svg">
  <path d="M 1084.5 85  L 1084.5 65  A 5 5 0 0 0 1079.5 60.5 L 795 60.5  A 5 5 0 0 0 790.5 65 L 790.5 110  A 3 3 0 0 1 793.5 113 A 3 3 0 0 1 790.5 116 L 790.5 327  A 3 3 0 0 1 793.5 330 A 3 3 0 0 1 790.5 333 L 790.5 811  A 5 5 0 0 1 785.5 816.5 L 775 816.5  " stroke-width="1" stroke="#ff0000" fill="none" stroke-opacity="0.298039215686275" />
  <path d="M 776 822  L 776 811  L 775 811  L 775 822  L 776 822  Z " fill-rule="nonzero" fill="#ff0000" stroke="none" fill-opacity="0.298039215686275" />
</svg>