<?xml version="1.0" encoding="utf-8"?>
<svg version="1.1" xmlns:xlink="http://www.w3.org/1999/xlink" width="40px" height="40px" xmlns="http://www.w3.org/2000/svg">
  <defs>
    <filter x="-4px" y="42px" width="40px" height="40px" filterUnits="userSpaceOnUse" id="filter383">
      <feOffset dx="1" dy="1" in="SourceAlpha" result="shadowOffsetInner" />
      <feGaussianBlur stdDeviation="2.5" in="shadowOffsetInner" result="shadowGaussian" />
      <feComposite in2="shadowGaussian" operator="atop" in="SourceAlpha" result="shadowComposite" />
      <feColorMatrix type="matrix" values="0 0 0 0 0  0 0 0 0 0  0 0 0 0 0  0 0 0 0.698039215686274 0  " in="shadowComposite" />
    </filter>
    <g id="widget384">
      <path d="M 15 46  C 23.4 46  30 52.6  30 61  C 30 69.4  23.4 76  15 76  C 6.6 76  0 69.4  0 61  C 0 52.6  6.6 46  15 46  Z " fill-rule="nonzero" fill="#0099ff" stroke="none" />
      <path d="M 15 46.5  C 23.12 46.5  29.5 52.88  29.5 61  C 29.5 69.12  23.12 75.5  15 75.5  C 6.88 75.5  0.5 69.12  0.5 61  C 0.5 52.88  6.88 46.5  15 46.5  Z " stroke-width="1" stroke="#ffffff" fill="none" />
    </g>
  </defs>
  <g transform="matrix(1 0 0 1 4 -42 )">
    <use xlink:href="#widget384" filter="url(#filter383)" />
    <use xlink:href="#widget384" />
  </g>
</svg>