<?xml version="1.0" encoding="utf-8"?>
<svg version="1.1" xmlns:xlink="http://www.w3.org/1999/xlink" width="40px" height="40px" xmlns="http://www.w3.org/2000/svg">
  <defs>
    <filter x="317px" y="42px" width="40px" height="40px" filterUnits="userSpaceOnUse" id="filter243">
      <feOffset dx="1" dy="1" in="SourceAlpha" result="shadowOffsetInner" />
      <feGaussianBlur stdDeviation="2.5" in="shadowOffsetInner" result="shadowGaussian" />
      <feComposite in2="shadowGaussian" operator="atop" in="SourceAlpha" result="shadowComposite" />
      <feColorMatrix type="matrix" values="0 0 0 0 0  0 0 0 0 0  0 0 0 0 0  0 0 0 0.698039215686274 0  " in="shadowComposite" />
    </filter>
    <g id="widget244">
      <path d="M 336 46  C 344.4 46  351 52.6  351 61  C 351 69.4  344.4 76  336 76  C 327.6 76  321 69.4  321 61  C 321 52.6  327.6 46  336 46  Z " fill-rule="nonzero" fill="#fb6260" stroke="none" />
      <path d="M 336 46.5  C 344.12 46.5  350.5 52.88  350.5 61  C 350.5 69.12  344.12 75.5  336 75.5  C 327.88 75.5  321.5 69.12  321.5 61  C 321.5 52.88  327.88 46.5  336 46.5  Z " stroke-width="1" stroke="#ffffff" fill="none" />
    </g>
  </defs>
  <g transform="matrix(1 0 0 1 -317 -42 )">
    <use xlink:href="#widget244" filter="url(#filter243)" />
    <use xlink:href="#widget244" />
  </g>
</svg>