<?xml version="1.0" encoding="utf-8"?>
<svg version="1.1" xmlns:xlink="http://www.w3.org/1999/xlink" width="40px" height="40px" xmlns="http://www.w3.org/2000/svg">
  <defs>
    <filter x="318px" y="56px" width="40px" height="40px" filterUnits="userSpaceOnUse" id="filter3">
      <feOffset dx="1" dy="1" in="SourceAlpha" result="shadowOffsetInner" />
      <feGaussianBlur stdDeviation="2.5" in="shadowOffsetInner" result="shadowGaussian" />
      <feComposite in2="shadowGaussian" operator="atop" in="SourceAlpha" result="shadowComposite" />
      <feColorMatrix type="matrix" values="0 0 0 0 0  0 0 0 0 0  0 0 0 0 0  0 0 0 0.698039215686274 0  " in="shadowComposite" />
    </filter>
    <g id="widget4">
      <path d="M 337 60  C 345.4 60  352 66.6  352 75  C 352 83.4  345.4 90  337 90  C 328.6 90  322 83.4  322 75  C 322 66.6  328.6 60  337 60  Z " fill-rule="nonzero" fill="#fb6260" stroke="none" />
      <path d="M 337 60.5  C 345.12 60.5  351.5 66.88  351.5 75  C 351.5 83.12  345.12 89.5  337 89.5  C 328.88 89.5  322.5 83.12  322.5 75  C 322.5 66.88  328.88 60.5  337 60.5  Z " stroke-width="1" stroke="#ffffff" fill="none" />
    </g>
  </defs>
  <g transform="matrix(1 0 0 1 -318 -56 )">
    <use xlink:href="#widget4" filter="url(#filter3)" />
    <use xlink:href="#widget4" />
  </g>
</svg>