<?xml version="1.0" encoding="utf-8"?>
<svg version="1.1" xmlns:xlink="http://www.w3.org/1999/xlink" width="40px" height="40px" xmlns="http://www.w3.org/2000/svg">
  <defs>
    <filter x="9px" y="56px" width="40px" height="40px" filterUnits="userSpaceOnUse" id="filter793">
      <feOffset dx="1" dy="1" in="SourceAlpha" result="shadowOffsetInner" />
      <feGaussianBlur stdDeviation="2.5" in="shadowOffsetInner" result="shadowGaussian" />
      <feComposite in2="shadowGaussian" operator="atop" in="SourceAlpha" result="shadowComposite" />
      <feColorMatrix type="matrix" values="0 0 0 0 0  0 0 0 0 0  0 0 0 0 0  0 0 0 0.698039215686274 0  " in="shadowComposite" />
    </filter>
    <g id="widget794">
      <path d="M 28 60  C 36.4 60  43 66.6  43 75  C 43 83.4  36.4 90  28 90  C 19.6 90  13 83.4  13 75  C 13 66.6  19.6 60  28 60  Z " fill-rule="nonzero" fill="#0099ff" stroke="none" />
      <path d="M 28 60.5  C 36.12 60.5  42.5 66.88  42.5 75  C 42.5 83.12  36.12 89.5  28 89.5  C 19.88 89.5  13.5 83.12  13.5 75  C 13.5 66.88  19.88 60.5  28 60.5  Z " stroke-width="1" stroke="#ffffff" fill="none" />
    </g>
  </defs>
  <g transform="matrix(1 0 0 1 -9 -56 )">
    <use xlink:href="#widget794" filter="url(#filter793)" />
    <use xlink:href="#widget794" />
  </g>
</svg>