<?xml version="1.0" encoding="utf-8"?>
<svg version="1.1" xmlns:xlink="http://www.w3.org/1999/xlink" width="40px" height="40px" xmlns="http://www.w3.org/2000/svg">
  <defs>
    <filter x="662px" y="57px" width="40px" height="40px" filterUnits="userSpaceOnUse" id="filter1127">
      <feOffset dx="1" dy="1" in="SourceAlpha" result="shadowOffsetInner" />
      <feGaussianBlur stdDeviation="2.5" in="shadowOffsetInner" result="shadowGaussian" />
      <feComposite in2="shadowGaussian" operator="atop" in="SourceAlpha" result="shadowComposite" />
      <feColorMatrix type="matrix" values="0 0 0 0 0  0 0 0 0 0  0 0 0 0 0  0 0 0 0.698039215686274 0  " in="shadowComposite" />
    </filter>
    <g id="widget1128">
      <path d="M 681 61  C 689.4 61  696 67.6  696 76  C 696 84.4  689.4 91  681 91  C 672.6 91  666 84.4  666 76  C 666 67.6  672.6 61  681 61  Z " fill-rule="nonzero" fill="#8167f5" stroke="none" />
      <path d="M 681 61.5  C 689.12 61.5  695.5 67.88  695.5 76  C 695.5 84.12  689.12 90.5  681 90.5  C 672.88 90.5  666.5 84.12  666.5 76  C 666.5 67.88  672.88 61.5  681 61.5  Z " stroke-width="1" stroke="#ffffff" fill="none" />
    </g>
  </defs>
  <g transform="matrix(1 0 0 1 -662 -57 )">
    <use xlink:href="#widget1128" filter="url(#filter1127)" />
    <use xlink:href="#widget1128" />
  </g>
</svg>